<?xml version="1.0" ?><!DOCTYPE svg  PUBLIC '-//W3C//DTD SVG 1.1//EN'  'http://www.w3.org/Graphics/SVG/1.1/DTD/svg11.dtd'><svg xmlns="http://www.w3.org/2000/svg" xmlns:xlink="http://www.w3.org/1999/xlink" version="1.1" id="Layer_1" width="512px" height="512px" viewBox="0 0 512 512" enable-background="new 0 0 512 512" xml:space="preserve"><g><circle fill="#C7E0F5" cx="256" cy="255.995" r="198.578"/><path fill="#547DBF" d="M486,230.21v51.57c0,23.76-16.29,43.911-38.26,49.82c-4.25,1.141-8.71,1.75-13.31,1.75H77.56   c-4.84,0-9.53-0.68-13.98-1.939C41.95,325.27,26,305.3,26,281.78v-51.57c0-23.76,16.29-43.91,38.25-49.82   c4.25-1.14,8.71-1.75,13.31-1.75h356.87c4.6,0,9.06,0.61,13.31,1.75C469.71,186.3,486,206.45,486,230.21z"/><path fill="#F0F0F1" d="M162.1,227.393l-11.917,26.793l-8.739-16.828c-2.15-4.14-6.428-6.738-11.093-6.738   s-8.943,2.599-11.093,6.738l-8.74,16.828l-11.917-26.793c-2.805-6.308-10.194-9.147-16.501-6.341   c-6.308,2.805-9.147,10.193-6.341,16.501l22.466,50.512c1.951,4.387,6.244,7.269,11.043,7.414c0.127,0.004,0.253,0.006,0.38,0.006   c4.654,0,8.937-2.59,11.091-6.738l9.611-18.506l9.611,18.506c2.213,4.261,6.66,6.872,11.471,6.732   c4.8-0.146,9.092-3.027,11.043-7.414l22.466-50.512c2.806-6.308-0.033-13.696-6.341-16.501   C172.293,218.243,164.906,221.085,162.1,227.393z"/><path fill="#F0F0F1" d="M287.744,227.393l-11.917,26.793l-8.74-16.828c-2.15-4.14-6.427-6.738-11.093-6.738   s-8.943,2.599-11.093,6.738l-8.739,16.828l-11.917-26.793c-2.805-6.308-10.193-9.15-16.501-6.341   c-6.308,2.805-9.147,10.193-6.341,16.501l22.466,50.512c1.951,4.387,6.243,7.269,11.043,7.414c4.8,0.126,9.258-2.472,11.471-6.732   l9.611-18.506l9.611,18.506c2.155,4.148,6.437,6.738,11.091,6.738c0.126,0,0.253-0.002,0.38-0.006   c4.8-0.146,9.092-3.027,11.043-7.414l22.466-50.512c2.806-6.308-0.033-13.696-6.341-16.501   C297.939,218.247,290.55,221.086,287.744,227.393z"/><path fill="#F0F0F1" d="M429.89,221.052c-6.309-2.809-13.695,0.033-16.501,6.341l-11.917,26.793l-8.739-16.828   c-2.15-4.14-6.428-6.738-11.093-6.738s-8.943,2.599-11.093,6.738l-8.739,16.828l-11.917-26.793   c-2.805-6.308-10.193-9.15-16.501-6.341c-6.308,2.805-9.147,10.193-6.341,16.501l22.466,50.512   c1.951,4.387,6.243,7.269,11.043,7.414c4.797,0.126,9.258-2.472,11.471-6.732l9.611-18.506l9.611,18.506   c2.155,4.148,6.438,6.738,11.092,6.738c0.126,0,0.253-0.002,0.38-0.006c4.8-0.146,9.092-3.027,11.043-7.414l22.466-50.512   C439.037,231.245,436.198,223.857,429.89,221.052z"/><path fill="#547DBF" d="M446.83,338.3c-32.9,76.19-107.75,125.42-190.72,125.47c-0.04,0-0.07,0.011-0.11,0.011   c-0.05,0-0.09-0.011-0.14-0.011c-83.64-0.05-158.72-49.85-191.31-126.89c-0.76-1.79-1.06-3.649-0.97-5.47   c4.45,1.26,9.14,1.939,13.98,1.939h12.79c22.15,47.45,63.01,82.311,111.59,97.29c-21.02-19.489-43.59-49.37-56.67-93.76   c-0.35-1.18-0.51-2.36-0.51-3.53h25.57c10.64,33.99,28.7,62.04,53.71,83.391c7.08,6.05,13.78,10.7,19.46,14.18v-97.57h25v97.57   c5.66-3.479,12.36-8.13,19.45-14.18c25.01-21.36,43.07-49.391,53.71-83.391h25.57c0,1.17-0.16,2.36-0.51,3.54   c-13.07,44.351-35.62,74.221-56.62,93.71c48.52-15.01,89.4-49.869,111.55-97.25h12.78c4.6,0,9.06-0.609,13.31-1.75   C448.05,333.8,447.78,336.111,446.83,338.3z"/><path fill="#547DBF" d="M447.74,180.39c-4.25-1.14-8.71-1.75-13.31-1.75h-12.78c-22.15-47.38-63.03-82.23-111.55-97.25   c21,19.49,43.55,49.36,56.62,93.72c0.35,1.18,0.51,2.36,0.51,3.53h-25.57c-10.64-34-28.7-62.03-53.71-83.39   c-7.08-6.04-13.78-10.69-19.45-14.17v97.56h-25V81.08c-5.67,3.48-12.38,8.13-19.46,14.17c-25.01,21.36-43.07,49.39-53.71,83.39   h-25.57c0-1.17,0.16-2.35,0.51-3.53c13.07-44.36,35.62-74.23,56.62-93.72c-48.52,15.02-89.4,49.86-111.54,97.25H77.56   c-4.6,0-9.06,0.61-13.31,1.75c-0.31-2.2-0.04-4.5,0.91-6.69C98.07,97.47,172.98,48.22,256,48.22   c83.01,0,157.92,49.25,190.83,125.47C447.78,175.88,448.05,178.19,447.74,180.39z"/></g></svg>